<svg  viewBox="0 0 30 30" fill="none" xmlns="http://www.w3.org/2000/svg">
<path d="M11.9775 0.310035C12.5073 0.20018 13.0371 0.122062 13.5596 0.0707964C14.0967 0.019531 14.6289 -0.00488104 15.1538 1.3705e-06C15.4492 0.00244258 15.686 0.244122 15.6836 0.539508C15.6812 0.766541 15.5371 0.959396 15.3369 1.03507C13.103 1.91391 11.3159 3.55196 10.2197 5.5806C9.14064 7.57507 8.73048 9.94548 9.2212 12.3379L9.22364 12.355C9.78272 15.0549 11.3794 17.274 13.5156 18.6801C15.6494 20.0863 18.3179 20.677 21.0181 20.1253L21.0352 20.1229C22.9785 19.7201 24.6704 18.7827 25.9912 17.4913C27.3584 16.1559 28.3252 14.4446 28.7573 12.5698C28.8233 12.2817 29.1113 12.1035 29.397 12.1694C29.6143 12.2207 29.7705 12.3965 29.8047 12.604C30.4492 16.5587 29.4751 20.4329 27.3486 23.5186C25.2319 26.5896 21.9702 28.8819 18.0274 29.6924C13.9697 30.5273 9.95851 29.6387 6.75294 27.5295C3.54493 25.413 1.14503 22.0807 0.310068 18.0234C-0.505362 14.0614 0.322275 10.1432 2.32667 6.97697C4.34083 3.80096 7.53907 1.37684 11.4526 0.427213C11.5283 0.407683 11.6162 0.388153 11.7114 0.366183H11.7139L11.9775 0.310035Z" fill="#E8E8E8"/>
</svg>
