<svg width="250" height="27" viewBox="0 0 250 27" fill="none" xmlns="http://www.w3.org/2000/svg">
<path d="M13.2053 26.5L7.60531 16.77H4.56031V26.5H0.570313V2.175H8.97031C10.837 2.175 12.412 2.50166 13.6953 3.155C15.002 3.80833 15.9703 4.68333 16.6003 5.78C17.2536 6.87667 17.5803 8.10167 17.5803 9.455C17.5803 11.0417 17.1136 12.4883 16.1803 13.795C15.2703 15.0783 13.8586 15.9533 11.9453 16.42L17.9653 26.5H13.2053ZM4.56031 13.585H8.97031C10.4636 13.585 11.5836 13.2117 12.3303 12.465C13.1003 11.7183 13.4853 10.715 13.4853 9.455C13.4853 8.195 13.112 7.215 12.3653 6.515C11.6186 5.79166 10.487 5.43 8.97031 5.43H4.56031V13.585ZM40.3596 16.385C40.3596 17.1083 40.3129 17.7617 40.2196 18.345H25.4846C25.6012 19.885 26.1729 21.1217 27.1996 22.055C28.2262 22.9883 29.4862 23.455 30.9796 23.455C33.1262 23.455 34.6429 22.5567 35.5296 20.76H39.8346C39.2512 22.5333 38.1896 23.9917 36.6496 25.135C35.1329 26.255 33.2429 26.815 30.9796 26.815C29.1362 26.815 27.4796 26.4067 26.0096 25.59C24.5629 24.75 23.4196 23.5833 22.5796 22.09C21.7629 20.5733 21.3546 18.8233 21.3546 16.84C21.3546 14.8567 21.7512 13.1183 22.5446 11.625C23.3612 10.1083 24.4929 8.94167 25.9396 8.125C27.4096 7.30833 29.0896 6.9 30.9796 6.9C32.7996 6.9 34.4212 7.29667 35.8446 8.09C37.2679 8.88333 38.3762 10.0033 39.1696 11.45C39.9629 12.8733 40.3596 14.5183 40.3596 16.385ZM36.1946 15.125C36.1712 13.655 35.6462 12.4767 34.6196 11.59C33.5929 10.7033 32.3212 10.26 30.8046 10.26C29.4279 10.26 28.2496 10.7033 27.2696 11.59C26.2896 12.4533 25.7062 13.6317 25.5196 15.125H36.1946ZM51.2861 26.815C49.7695 26.815 48.4045 26.5467 47.1911 26.01C46.0011 25.45 45.0561 24.7033 44.3561 23.77C43.6561 22.8133 43.2828 21.7517 43.2361 20.585H47.3661C47.4361 21.4017 47.8211 22.09 48.5211 22.65C49.2445 23.1867 50.1428 23.455 51.2161 23.455C52.3361 23.455 53.1995 23.245 53.8061 22.825C54.4361 22.3817 54.7511 21.8217 54.7511 21.145C54.7511 20.4217 54.4011 19.885 53.7011 19.535C53.0245 19.185 51.9395 18.8 50.4461 18.38C48.9995 17.9833 47.8211 17.5983 46.9111 17.225C46.0011 16.8517 45.2078 16.28 44.5311 15.51C43.8778 14.74 43.5511 13.725 43.5511 12.465C43.5511 11.4383 43.8545 10.505 44.4611 9.665C45.0678 8.80167 45.9311 8.125 47.0511 7.635C48.1945 7.145 49.5011 6.9 50.9711 6.9C53.1645 6.9 54.9261 7.46 56.2561 8.58C57.6095 9.67667 58.3328 11.1817 58.4261 13.095H54.4361C54.3661 12.2317 54.0161 11.5433 53.3861 11.03C52.7561 10.5167 51.9045 10.26 50.8311 10.26C49.7811 10.26 48.9761 10.4583 48.4161 10.855C47.8561 11.2517 47.5761 11.7767 47.5761 12.43C47.5761 12.9433 47.7628 13.375 48.1361 13.725C48.5095 14.075 48.9645 14.355 49.5011 14.565C50.0378 14.7517 50.8311 14.9967 51.8811 15.3C53.2811 15.6733 54.4245 16.0583 55.3111 16.455C56.2211 16.8283 57.0028 17.3883 57.6561 18.135C58.3095 18.8817 58.6478 19.8733 58.6711 21.11C58.6711 22.2067 58.3678 23.1867 57.7611 24.05C57.1545 24.9133 56.2911 25.59 55.1711 26.08C54.0745 26.57 52.7795 26.815 51.2861 26.815ZM80.4474 7.215V26.5H76.4574V24.225C75.8274 25.0183 74.9991 25.6483 73.9724 26.115C72.9691 26.5583 71.8958 26.78 70.7524 26.78C69.2358 26.78 67.8708 26.465 66.6574 25.835C65.4674 25.205 64.5224 24.2717 63.8224 23.035C63.1458 21.7983 62.8074 20.305 62.8074 18.555V7.215H66.7624V17.96C66.7624 19.6867 67.1941 21.0167 68.0574 21.95C68.9208 22.86 70.0991 23.315 71.5924 23.315C73.0858 23.315 74.2641 22.86 75.1274 21.95C76.0141 21.0167 76.4574 19.6867 76.4574 17.96V7.215H80.4474ZM109.057 6.9C110.574 6.9 111.927 7.215 113.117 7.845C114.33 8.475 115.275 9.40833 115.952 10.645C116.652 11.8817 117.002 13.375 117.002 15.125V26.5H113.047V15.72C113.047 13.9933 112.615 12.675 111.752 11.765C110.889 10.8317 109.71 10.365 108.217 10.365C106.724 10.365 105.534 10.8317 104.647 11.765C103.784 12.675 103.352 13.9933 103.352 15.72V26.5H99.3969V15.72C99.3969 13.9933 98.9652 12.675 98.1019 11.765C97.2386 10.8317 96.0602 10.365 94.5669 10.365C93.0736 10.365 91.8836 10.8317 90.9969 11.765C90.1336 12.675 89.7019 13.9933 89.7019 15.72V26.5H85.7119V7.215H89.7019V9.42C90.3552 8.62667 91.1836 8.00833 92.1869 7.565C93.1902 7.12167 94.2636 6.9 95.4069 6.9C96.9469 6.9 98.3236 7.22667 99.5369 7.88C100.75 8.53333 101.684 9.47833 102.337 10.715C102.92 9.54833 103.83 8.62667 105.067 7.95C106.304 7.25 107.634 6.9 109.057 6.9ZM139.754 16.385C139.754 17.1083 139.707 17.7617 139.614 18.345H124.879C124.996 19.885 125.567 21.1217 126.594 22.055C127.621 22.9883 128.881 23.455 130.374 23.455C132.521 23.455 134.037 22.5567 134.924 20.76H139.229C138.646 22.5333 137.584 23.9917 136.044 25.135C134.527 26.255 132.637 26.815 130.374 26.815C128.531 26.815 126.874 26.4067 125.404 25.59C123.957 24.75 122.814 23.5833 121.974 22.09C121.157 20.5733 120.749 18.8233 120.749 16.84C120.749 14.8567 121.146 13.1183 121.939 11.625C122.756 10.1083 123.887 8.94167 125.334 8.125C126.804 7.30833 128.484 6.9 130.374 6.9C132.194 6.9 133.816 7.29667 135.239 8.09C136.662 8.88333 137.771 10.0033 138.564 11.45C139.357 12.8733 139.754 14.5183 139.754 16.385ZM135.589 15.125C135.566 13.655 135.041 12.4767 134.014 11.59C132.987 10.7033 131.716 10.26 130.199 10.26C128.822 10.26 127.644 10.7033 126.664 11.59C125.684 12.4533 125.101 13.6317 124.914 15.125H135.589ZM169.301 2.175V26.5H165.311V9.84L157.891 26.5H155.126L147.671 9.84V26.5H143.681V2.175H147.986L156.526 21.25L165.031 2.175H169.301ZM173.215 16.77C173.215 14.8333 173.612 13.1183 174.405 11.625C175.222 10.1317 176.318 8.97667 177.695 8.16C179.095 7.32 180.635 6.9 182.315 6.9C183.832 6.9 185.15 7.20333 186.27 7.81C187.413 8.39333 188.323 9.12833 189 10.015V7.215H193.025V26.5H189V23.63C188.323 24.54 187.402 25.2983 186.235 25.905C185.068 26.5117 183.738 26.815 182.245 26.815C180.588 26.815 179.072 26.395 177.695 25.555C176.318 24.6917 175.222 23.5017 174.405 21.985C173.612 20.445 173.215 18.7067 173.215 16.77ZM189 16.84C189 15.51 188.72 14.355 188.16 13.375C187.623 12.395 186.912 11.6483 186.025 11.135C185.138 10.6217 184.182 10.365 183.155 10.365C182.128 10.365 181.172 10.6217 180.285 11.135C179.398 11.625 178.675 12.36 178.115 13.34C177.578 14.2967 177.31 15.44 177.31 16.77C177.31 18.1 177.578 19.2667 178.115 20.27C178.675 21.2733 179.398 22.0433 180.285 22.58C181.195 23.0933 182.152 23.35 183.155 23.35C184.182 23.35 185.138 23.0933 186.025 22.58C186.912 22.0667 187.623 21.32 188.16 20.34C188.72 19.3367 189 18.17 189 16.84ZM205.896 16.875L214.786 26.5H209.396L202.256 18.205V26.5H198.266V0.6H202.256V15.65L209.256 7.215H214.786L205.896 16.875ZM235.321 16.385C235.321 17.1083 235.274 17.7617 235.181 18.345H220.446C220.562 19.885 221.134 21.1217 222.161 22.055C223.187 22.9883 224.447 23.455 225.941 23.455C228.087 23.455 229.604 22.5567 230.491 20.76H234.796C234.212 22.5333 233.151 23.9917 231.611 25.135C230.094 26.255 228.204 26.815 225.941 26.815C224.097 26.815 222.441 26.4067 220.971 25.59C219.524 24.75 218.381 23.5833 217.541 22.09C216.724 20.5733 216.316 18.8233 216.316 16.84C216.316 14.8567 216.712 13.1183 217.506 11.625C218.322 10.1083 219.454 8.94167 220.901 8.125C222.371 7.30833 224.051 6.9 225.941 6.9C227.761 6.9 229.382 7.29667 230.806 8.09C232.229 8.88333 233.337 10.0033 234.131 11.45C234.924 12.8733 235.321 14.5183 235.321 16.385ZM231.156 15.125C231.132 13.655 230.607 12.4767 229.581 11.59C228.554 10.7033 227.282 10.26 225.766 10.26C224.389 10.26 223.211 10.7033 222.231 11.59C221.251 12.4533 220.667 13.6317 220.481 15.125H231.156ZM243.237 10.015C243.82 9.035 244.59 8.27667 245.547 7.74C246.527 7.18 247.682 6.9 249.012 6.9V11.03H247.997C246.434 11.03 245.244 11.4267 244.427 12.22C243.634 13.0133 243.237 14.39 243.237 16.35V26.5H239.247V7.215H243.237V10.015Z" fill="#58A9A5"/>
</svg>
