<svg  viewBox="0 0 35 35" fill="none" xmlns="http://www.w3.org/2000/svg">
<path d="M14.7579 31.4684C14.7579 29.4854 14.6822 27.863 14.5897 27.863C14.3122 27.863 13.6752 28.6691 12.1343 30.9704C9.71469 34.5836 9.61366 34.4766 11.0286 29.8003C11.5541 28.0636 11.9286 26.587 11.8608 26.5187C11.6655 26.322 11.1414 26.6745 8.67146 28.6639C6.31887 30.5589 5.55035 30.9665 6.02495 30.0675C6.15893 29.8137 6.98708 28.5298 7.8653 27.2144C9.4612 24.8239 9.8092 23.9961 9.1056 24.2643C8.90955 24.339 7.43412 24.909 5.82684 25.5308C1.81888 27.0816 1.78812 26.9789 5.38826 24.0697C6.72453 22.9899 7.87732 22.0096 7.95004 21.8912C8.24604 21.4091 7.58222 21.363 4.51688 21.6526C1.58358 21.9298 0.441298 21.9073 0.767606 21.5787C0.83501 21.5108 2.28581 20.885 3.99157 20.1881C5.69738 19.4911 7.12816 18.815 7.17093 18.6856C7.26086 18.414 6.1238 18.0623 2.63827 17.2835C1.29393 16.9831 0.118453 16.6685 0.0259792 16.5844C-0.183656 16.3937 0.837654 16.2506 4.47146 15.9615C6.03986 15.8367 7.40538 15.6539 7.5062 15.5553C7.70178 15.3638 6.95604 14.8583 3.64592 12.9386C2.53156 12.2924 1.66566 11.6735 1.72168 11.5634C1.84581 11.3194 1.95979 11.3359 5.34508 12.088C8.2794 12.7399 8.64706 12.786 8.64706 12.5024C8.64706 12.3996 7.6388 11.1877 6.40649 9.80942C5.17418 8.43111 4.16593 7.17182 4.16593 7.01106C4.16593 6.85025 4.23467 6.75724 4.3187 6.80438C4.40272 6.85152 5.76571 7.64129 7.34753 8.55944C8.92939 9.47758 10.3273 10.2288 10.4538 10.2288C10.865 10.2288 10.706 9.77284 9.22304 6.69817C8.41958 5.03229 7.83434 3.5996 7.92252 3.5145C8.0107 3.42932 9.16874 4.51191 10.4959 5.92019C12.0897 7.61145 12.9776 8.4118 13.1108 8.27769C13.2441 8.1435 13.1792 7.16969 12.9195 5.4094C12.4709 2.36826 12.4194 1.32658 12.7272 1.5181C12.8427 1.59001 13.4943 2.76733 14.175 4.13438C15.6466 7.08982 15.986 7.63895 16.205 7.41852C16.3389 7.28373 17.4054 0.772529 17.4055 0.0890853C17.4055 -0.0311417 17.4812 -0.0295772 17.6031 0.0931699C17.7118 0.202556 18.0318 1.73409 18.3144 3.49665C18.8621 6.91284 18.9718 7.35822 19.2654 7.35822C19.3681 7.35822 20.097 6.04331 20.8851 4.4362C23.0245 0.0738949 23.108 0.0923497 22.402 4.77411C21.7944 8.80444 21.8216 8.38346 22.1692 8.38346C22.3247 8.38346 23.4807 7.27617 24.7384 5.92282C25.9959 4.56947 27.1123 3.46218 27.2193 3.46218C27.5125 3.46218 27.2636 4.12288 25.837 7.13059C25.1207 8.6407 24.5347 9.95561 24.5347 10.0526C24.5347 10.44 25.1719 10.1599 27.8843 8.58029C29.4414 7.67353 30.8486 6.9584 31.0115 6.99113C31.1977 7.02854 30.4282 8.02866 28.9396 9.6841C27.6372 11.1325 26.5716 12.4013 26.5716 12.5036C26.5716 12.7998 27.0952 12.729 30.3398 11.9941C34.386 11.0776 34.5909 11.1912 31.8164 12.8123C28.7521 14.6026 27.5606 15.4076 27.729 15.5741C27.8206 15.6646 29.2246 15.8374 30.8491 15.9582C34.621 16.2386 35.3298 16.3523 34.8807 16.6053C34.696 16.7093 33.0947 17.1429 31.3221 17.5688C29.04 18.1172 28.0993 18.4279 28.0993 18.6336C28.0993 18.817 29.1645 19.3429 30.9919 20.0617C33.7386 21.142 34.5271 21.5637 34.2749 21.8176C34.1583 21.935 28.9076 21.5765 27.9661 21.3868C27.4002 21.2728 27.1117 21.483 27.3491 21.8366C27.4257 21.9507 28.5425 22.9237 29.8308 23.9987C32.3602 26.1095 32.8882 26.6332 32.4865 26.6332C32.3513 26.6332 30.9423 26.1308 29.3554 25.5168C27.7685 24.9028 26.3097 24.3393 26.1137 24.2646C25.4126 23.9973 25.7584 24.8016 27.4155 27.2916C28.9985 29.6702 29.4495 30.5294 29.1154 30.5294C29.0318 30.5294 27.99 29.7623 26.8001 28.8249C23.4757 26.2053 23.182 26.0398 23.3647 26.8897C23.4193 27.1434 23.8493 28.6222 24.3203 30.1759C25.5777 34.3233 25.4083 34.337 22.6752 30.3096C21.7578 28.9577 20.9072 27.8849 20.7852 27.9255C20.6426 27.973 20.5269 29.2154 20.4614 31.4011C20.4054 33.272 20.293 34.8694 20.2116 34.951C20.0246 35.1384 19.9534 34.9529 18.8362 31.3665C18.3297 29.7404 17.8071 28.3737 17.6748 28.3296C17.5227 28.2787 17.0364 29.4735 16.3509 31.5824C15.7549 33.4157 15.1528 34.9514 15.0128 34.9953C14.8157 35.0569 14.7582 34.2596 14.7582 31.4694L14.7579 31.4684Z" fill="#585858"/>
</svg>
